<mxfile host="app.diagrams.net" modified="2023-04-30T10:13:35.397Z" agent="Mozilla/5.0 (Windows NT 10.0; Win64; x64) AppleWebKit/537.36 (KHTML, like Gecko) Chrome/112.0.0.0 Safari/537.36" etag="vPDUi3ThVY1Y-jCibKq4" version="21.2.3" type="github">
  <diagram id="C5RBs43oDa-KdzZeNtuy" name="Page-1">
    <mxGraphModel dx="2288" dy="1833" grid="1" gridSize="10" guides="1" tooltips="1" connect="1" arrows="1" fold="1" page="1" pageScale="1" pageWidth="827" pageHeight="1169" math="0" shadow="0">
      <root>
        <mxCell id="WIyWlLk6GJQsqaUBKTNV-0" />
        <mxCell id="WIyWlLk6GJQsqaUBKTNV-1" parent="WIyWlLk6GJQsqaUBKTNV-0" />
        <mxCell id="Y8M9MO8NN97qPmSPEtLH-23" value="" style="rounded=0;whiteSpace=wrap;html=1;fontFamily=Helvetica;fontSize=12;fontColor=default;fillColor=none;gradientColor=none;" parent="WIyWlLk6GJQsqaUBKTNV-1" vertex="1">
          <mxGeometry x="-795" y="-950" width="300" height="680" as="geometry" />
        </mxCell>
        <mxCell id="zkfFHV4jXpPFQw0GAbJ--0" value="EventManager" style="swimlane;fontStyle=2;align=center;verticalAlign=top;childLayout=stackLayout;horizontal=1;startSize=26;horizontalStack=0;resizeParent=1;resizeLast=0;collapsible=1;marginBottom=0;rounded=0;shadow=0;strokeWidth=1;" parent="WIyWlLk6GJQsqaUBKTNV-1" vertex="1">
          <mxGeometry x="-360" y="-830" width="250" height="230" as="geometry">
            <mxRectangle x="230" y="140" width="160" height="26" as="alternateBounds" />
          </mxGeometry>
        </mxCell>
        <mxCell id="zkfFHV4jXpPFQw0GAbJ--7" value="Dictionary&lt;string, event&gt; _events" style="text;align=left;verticalAlign=top;spacingLeft=4;spacingRight=4;overflow=hidden;rotatable=0;points=[[0,0.5],[1,0.5]];portConstraint=eastwest;" parent="zkfFHV4jXpPFQw0GAbJ--0" vertex="1">
          <mxGeometry y="26" width="250" height="26" as="geometry" />
        </mxCell>
        <mxCell id="zkfFHV4jXpPFQw0GAbJ--4" value="" style="line;html=1;strokeWidth=1;align=left;verticalAlign=middle;spacingTop=-1;spacingLeft=3;spacingRight=3;rotatable=0;labelPosition=right;points=[];portConstraint=eastwest;" parent="zkfFHV4jXpPFQw0GAbJ--0" vertex="1">
          <mxGeometry y="52" width="250" height="8" as="geometry" />
        </mxCell>
        <mxCell id="Y8M9MO8NN97qPmSPEtLH-54" value="EventAction(string)" style="text;html=1;strokeColor=none;fillColor=none;align=center;verticalAlign=middle;whiteSpace=wrap;rounded=0;" parent="zkfFHV4jXpPFQw0GAbJ--0" vertex="1">
          <mxGeometry y="60" width="250" height="30" as="geometry" />
        </mxCell>
        <mxCell id="Y8M9MO8NN97qPmSPEtLH-1" value="" style="rounded=1;whiteSpace=wrap;html=1;" parent="WIyWlLk6GJQsqaUBKTNV-1" vertex="1">
          <mxGeometry x="-715" y="-930" width="120" height="60" as="geometry" />
        </mxCell>
        <mxCell id="Y8M9MO8NN97qPmSPEtLH-2" value="타이틀 씬" style="text;html=1;strokeColor=none;fillColor=none;align=center;verticalAlign=middle;whiteSpace=wrap;rounded=0;" parent="WIyWlLk6GJQsqaUBKTNV-1" vertex="1">
          <mxGeometry x="-715" y="-930" width="120" height="60" as="geometry" />
        </mxCell>
        <mxCell id="Y8M9MO8NN97qPmSPEtLH-5" value="" style="rounded=1;whiteSpace=wrap;html=1;" parent="WIyWlLk6GJQsqaUBKTNV-1" vertex="1">
          <mxGeometry x="-305" y="-930" width="120" height="60" as="geometry" />
        </mxCell>
        <mxCell id="Y8M9MO8NN97qPmSPEtLH-6" value="메인 씬" style="text;html=1;strokeColor=none;fillColor=none;align=center;verticalAlign=middle;whiteSpace=wrap;rounded=0;" parent="WIyWlLk6GJQsqaUBKTNV-1" vertex="1">
          <mxGeometry x="-305" y="-930" width="120" height="60" as="geometry" />
        </mxCell>
        <mxCell id="Y8M9MO8NN97qPmSPEtLH-7" value="" style="rounded=1;whiteSpace=wrap;html=1;" parent="WIyWlLk6GJQsqaUBKTNV-1" vertex="1">
          <mxGeometry x="240" y="-930" width="120" height="60" as="geometry" />
        </mxCell>
        <mxCell id="Y8M9MO8NN97qPmSPEtLH-8" value="종료 씬" style="text;html=1;strokeColor=none;fillColor=none;align=center;verticalAlign=middle;whiteSpace=wrap;rounded=0;" parent="WIyWlLk6GJQsqaUBKTNV-1" vertex="1">
          <mxGeometry x="240" y="-930" width="120" height="60" as="geometry" />
        </mxCell>
        <mxCell id="Y8M9MO8NN97qPmSPEtLH-9" value="" style="rounded=1;whiteSpace=wrap;html=1;" parent="WIyWlLk6GJQsqaUBKTNV-1" vertex="1">
          <mxGeometry x="10" y="-850" width="120" height="60" as="geometry" />
        </mxCell>
        <mxCell id="Y8M9MO8NN97qPmSPEtLH-10" value="전투 씬" style="text;html=1;strokeColor=none;fillColor=none;align=center;verticalAlign=middle;whiteSpace=wrap;rounded=0;" parent="WIyWlLk6GJQsqaUBKTNV-1" vertex="1">
          <mxGeometry x="10" y="-850" width="120" height="60" as="geometry" />
        </mxCell>
        <mxCell id="Y8M9MO8NN97qPmSPEtLH-14" value="TitleManager" style="swimlane;fontStyle=2;align=center;verticalAlign=top;childLayout=stackLayout;horizontal=1;startSize=27;horizontalStack=0;resizeParent=1;resizeLast=0;collapsible=1;marginBottom=0;rounded=0;shadow=0;strokeWidth=1;" parent="WIyWlLk6GJQsqaUBKTNV-1" vertex="1">
          <mxGeometry x="-745" y="-817" width="200" height="139" as="geometry">
            <mxRectangle x="230" y="140" width="160" height="26" as="alternateBounds" />
          </mxGeometry>
        </mxCell>
        <mxCell id="Y8M9MO8NN97qPmSPEtLH-18" value="" style="line;html=1;strokeWidth=1;align=left;verticalAlign=middle;spacingTop=-1;spacingLeft=3;spacingRight=3;rotatable=0;labelPosition=right;points=[];portConstraint=eastwest;" parent="Y8M9MO8NN97qPmSPEtLH-14" vertex="1">
          <mxGeometry y="27" width="200" height="8" as="geometry" />
        </mxCell>
        <mxCell id="dnyV6IaLeIsVLDCgqrAI-0" value="" style="whiteSpace=wrap;html=1;" vertex="1" parent="Y8M9MO8NN97qPmSPEtLH-14">
          <mxGeometry y="35" width="200" height="60" as="geometry" />
        </mxCell>
        <mxCell id="Y8M9MO8NN97qPmSPEtLH-32" style="edgeStyle=orthogonalEdgeStyle;rounded=0;orthogonalLoop=1;jettySize=auto;html=1;" parent="WIyWlLk6GJQsqaUBKTNV-1" edge="1">
          <mxGeometry relative="1" as="geometry">
            <mxPoint x="480" y="-880" as="sourcePoint" />
            <mxPoint x="400" y="-880" as="targetPoint" />
          </mxGeometry>
        </mxCell>
        <mxCell id="Y8M9MO8NN97qPmSPEtLH-33" value="" style="endArrow=block;endSize=10;endFill=0;shadow=0;strokeWidth=1;rounded=0;edgeStyle=elbowEdgeStyle;elbow=vertical;" parent="WIyWlLk6GJQsqaUBKTNV-1" edge="1">
          <mxGeometry width="160" relative="1" as="geometry">
            <mxPoint x="480" y="-920" as="sourcePoint" />
            <mxPoint x="400" y="-920" as="targetPoint" />
          </mxGeometry>
        </mxCell>
        <mxCell id="Y8M9MO8NN97qPmSPEtLH-34" value="컴포넌트" style="text;html=1;strokeColor=none;fillColor=none;align=center;verticalAlign=middle;whiteSpace=wrap;rounded=0;fontSize=12;fontFamily=Helvetica;fontColor=default;" parent="WIyWlLk6GJQsqaUBKTNV-1" vertex="1">
          <mxGeometry x="400" y="-880" width="80" height="30" as="geometry" />
        </mxCell>
        <mxCell id="Y8M9MO8NN97qPmSPEtLH-35" value="상속" style="text;html=1;strokeColor=none;fillColor=none;align=center;verticalAlign=middle;whiteSpace=wrap;rounded=0;fontSize=12;fontFamily=Helvetica;fontColor=default;" parent="WIyWlLk6GJQsqaUBKTNV-1" vertex="1">
          <mxGeometry x="400" y="-920" width="80" height="30" as="geometry" />
        </mxCell>
        <mxCell id="Y8M9MO8NN97qPmSPEtLH-37" value="" style="shape=flexArrow;endArrow=classic;html=1;rounded=0;fontFamily=Helvetica;fontSize=12;fontColor=default;" parent="WIyWlLk6GJQsqaUBKTNV-1" target="Y8M9MO8NN97qPmSPEtLH-6" edge="1">
          <mxGeometry width="50" height="50" relative="1" as="geometry">
            <mxPoint x="-595" y="-900" as="sourcePoint" />
            <mxPoint x="-545" y="-950" as="targetPoint" />
            <Array as="points" />
          </mxGeometry>
        </mxCell>
        <mxCell id="Y8M9MO8NN97qPmSPEtLH-38" value="" style="shape=flexArrow;endArrow=classic;html=1;rounded=0;fontFamily=Helvetica;fontSize=12;fontColor=default;entryX=0;entryY=0.5;entryDx=0;entryDy=0;" parent="WIyWlLk6GJQsqaUBKTNV-1" target="Y8M9MO8NN97qPmSPEtLH-8" edge="1">
          <mxGeometry width="50" height="50" relative="1" as="geometry">
            <mxPoint x="-185" y="-900.5" as="sourcePoint" />
            <mxPoint x="105" y="-900.5" as="targetPoint" />
            <Array as="points" />
          </mxGeometry>
        </mxCell>
        <mxCell id="Y8M9MO8NN97qPmSPEtLH-42" value="" style="shape=flexArrow;endArrow=classic;html=1;rounded=0;fontFamily=Helvetica;fontSize=12;fontColor=default;entryX=0.5;entryY=0;entryDx=0;entryDy=0;" parent="WIyWlLk6GJQsqaUBKTNV-1" target="Y8M9MO8NN97qPmSPEtLH-10" edge="1">
          <mxGeometry width="50" height="50" relative="1" as="geometry">
            <mxPoint x="-185" y="-900.5" as="sourcePoint" />
            <mxPoint x="595" y="-900" as="targetPoint" />
            <Array as="points">
              <mxPoint x="70" y="-900" />
            </Array>
          </mxGeometry>
        </mxCell>
        <mxCell id="Y8M9MO8NN97qPmSPEtLH-59" value="someevent" style="swimlane;fontStyle=0;childLayout=stackLayout;horizontal=1;startSize=30;fillColor=none;horizontalStack=0;resizeParent=1;resizeParentMax=0;resizeLast=0;collapsible=1;marginBottom=0;html=1;rounded=0;fontFamily=Helvetica;fontSize=12;fontColor=default;" parent="WIyWlLk6GJQsqaUBKTNV-1" vertex="1">
          <mxGeometry x="-300" y="-530" width="140" height="70" as="geometry">
            <mxRectangle x="-360" y="-500" width="70" height="30" as="alternateBounds" />
          </mxGeometry>
        </mxCell>
        <mxCell id="Y8M9MO8NN97qPmSPEtLH-60" value="string name" style="text;strokeColor=none;fillColor=none;align=left;verticalAlign=top;spacingLeft=4;spacingRight=4;overflow=hidden;rotatable=0;points=[[0,0.5],[1,0.5]];portConstraint=eastwest;whiteSpace=wrap;html=1;fontSize=12;fontFamily=Helvetica;fontColor=default;" parent="Y8M9MO8NN97qPmSPEtLH-59" vertex="1">
          <mxGeometry y="30" width="140" height="26" as="geometry" />
        </mxCell>
        <mxCell id="EGVbobSlY5kvLiHjOKlU-16" value="" style="line;html=1;strokeWidth=1;align=left;verticalAlign=middle;spacingTop=-1;spacingLeft=3;spacingRight=3;rotatable=0;labelPosition=right;points=[];portConstraint=eastwest;" parent="Y8M9MO8NN97qPmSPEtLH-59" vertex="1">
          <mxGeometry y="56" width="140" height="8" as="geometry" />
        </mxCell>
        <mxCell id="Y8M9MO8NN97qPmSPEtLH-62" value="Item 3" style="text;strokeColor=none;fillColor=none;align=left;verticalAlign=top;spacingLeft=4;spacingRight=4;overflow=hidden;rotatable=0;points=[[0,0.5],[1,0.5]];portConstraint=eastwest;whiteSpace=wrap;html=1;fontSize=12;fontFamily=Helvetica;fontColor=default;" parent="Y8M9MO8NN97qPmSPEtLH-59" vertex="1">
          <mxGeometry y="64" width="140" height="6" as="geometry" />
        </mxCell>
        <mxCell id="EGVbobSlY5kvLiHjOKlU-17" value="" style="endArrow=block;endSize=10;endFill=0;shadow=0;strokeWidth=1;rounded=0;edgeStyle=elbowEdgeStyle;elbow=vertical;exitX=0.5;exitY=0;exitDx=0;exitDy=0;entryX=0.464;entryY=1.026;entryDx=0;entryDy=0;entryPerimeter=0;" parent="WIyWlLk6GJQsqaUBKTNV-1" source="EGVbobSlY5kvLiHjOKlU-18" target="Y8M9MO8NN97qPmSPEtLH-62" edge="1">
          <mxGeometry width="160" relative="1" as="geometry">
            <mxPoint x="-340" y="-394" as="sourcePoint" />
            <mxPoint x="-260" y="-400" as="targetPoint" />
            <Array as="points">
              <mxPoint x="-290" y="-410" />
            </Array>
          </mxGeometry>
        </mxCell>
        <mxCell id="EGVbobSlY5kvLiHjOKlU-18" value="Blacksmith" style="swimlane;fontStyle=0;childLayout=stackLayout;horizontal=1;startSize=30;fillColor=none;horizontalStack=0;resizeParent=1;resizeParentMax=0;resizeLast=0;collapsible=1;marginBottom=0;html=1;rounded=0;fontFamily=Helvetica;fontSize=12;fontColor=default;" parent="WIyWlLk6GJQsqaUBKTNV-1" vertex="1">
          <mxGeometry x="-470" y="-390" width="140" height="90" as="geometry">
            <mxRectangle x="-360" y="-500" width="70" height="30" as="alternateBounds" />
          </mxGeometry>
        </mxCell>
        <mxCell id="EGVbobSlY5kvLiHjOKlU-20" value="" style="line;html=1;strokeWidth=1;align=left;verticalAlign=middle;spacingTop=-1;spacingLeft=3;spacingRight=3;rotatable=0;labelPosition=right;points=[];portConstraint=eastwest;" parent="EGVbobSlY5kvLiHjOKlU-18" vertex="1">
          <mxGeometry y="30" width="140" height="60" as="geometry" />
        </mxCell>
        <mxCell id="EGVbobSlY5kvLiHjOKlU-23" value="Merchant" style="swimlane;fontStyle=0;childLayout=stackLayout;horizontal=1;startSize=30;fillColor=none;horizontalStack=0;resizeParent=1;resizeParentMax=0;resizeLast=0;collapsible=1;marginBottom=0;html=1;rounded=0;fontFamily=Helvetica;fontSize=12;fontColor=default;" parent="WIyWlLk6GJQsqaUBKTNV-1" vertex="1">
          <mxGeometry x="-305" y="-390" width="140" height="38" as="geometry">
            <mxRectangle x="-360" y="-500" width="70" height="30" as="alternateBounds" />
          </mxGeometry>
        </mxCell>
        <mxCell id="EGVbobSlY5kvLiHjOKlU-25" value="" style="line;html=1;strokeWidth=1;align=left;verticalAlign=middle;spacingTop=-1;spacingLeft=3;spacingRight=3;rotatable=0;labelPosition=right;points=[];portConstraint=eastwest;" parent="EGVbobSlY5kvLiHjOKlU-23" vertex="1">
          <mxGeometry y="30" width="140" height="8" as="geometry" />
        </mxCell>
        <mxCell id="EGVbobSlY5kvLiHjOKlU-34" value="" style="endArrow=block;endSize=10;endFill=0;shadow=0;strokeWidth=1;rounded=0;edgeStyle=elbowEdgeStyle;elbow=vertical;exitX=0.5;exitY=0;exitDx=0;exitDy=0;" parent="WIyWlLk6GJQsqaUBKTNV-1" edge="1">
          <mxGeometry width="160" relative="1" as="geometry">
            <mxPoint x="-235" y="-389" as="sourcePoint" />
            <mxPoint x="-235" y="-460" as="targetPoint" />
            <Array as="points">
              <mxPoint y="-400" />
            </Array>
          </mxGeometry>
        </mxCell>
        <mxCell id="EGVbobSlY5kvLiHjOKlU-35" value="" style="endArrow=block;endSize=10;endFill=0;shadow=0;strokeWidth=1;rounded=0;edgeStyle=elbowEdgeStyle;elbow=vertical;" parent="WIyWlLk6GJQsqaUBKTNV-1" edge="1">
          <mxGeometry width="160" relative="1" as="geometry">
            <mxPoint x="-70" y="-390" as="sourcePoint" />
            <mxPoint x="-235" y="-460" as="targetPoint" />
            <Array as="points">
              <mxPoint x="-290" y="-410" />
            </Array>
          </mxGeometry>
        </mxCell>
        <mxCell id="EGVbobSlY5kvLiHjOKlU-36" value="Skill" style="swimlane;fontStyle=0;childLayout=stackLayout;horizontal=1;startSize=30;fillColor=none;horizontalStack=0;resizeParent=1;resizeParentMax=0;resizeLast=0;collapsible=1;marginBottom=0;html=1;rounded=0;fontFamily=Helvetica;fontSize=12;fontColor=default;" parent="WIyWlLk6GJQsqaUBKTNV-1" vertex="1">
          <mxGeometry x="-140" y="-390" width="140" height="38" as="geometry">
            <mxRectangle x="-360" y="-500" width="70" height="30" as="alternateBounds" />
          </mxGeometry>
        </mxCell>
        <mxCell id="EGVbobSlY5kvLiHjOKlU-38" value="" style="line;html=1;strokeWidth=1;align=left;verticalAlign=middle;spacingTop=-1;spacingLeft=3;spacingRight=3;rotatable=0;labelPosition=right;points=[];portConstraint=eastwest;" parent="EGVbobSlY5kvLiHjOKlU-36" vertex="1">
          <mxGeometry y="30" width="140" height="8" as="geometry" />
        </mxCell>
        <mxCell id="EGVbobSlY5kvLiHjOKlU-40" value="" style="verticalLabelPosition=bottom;verticalAlign=top;html=1;shape=mxgraph.basic.smiley" parent="WIyWlLk6GJQsqaUBKTNV-1" vertex="1">
          <mxGeometry x="380" y="-840" width="100" height="100" as="geometry" />
        </mxCell>
        <mxCell id="EGVbobSlY5kvLiHjOKlU-43" style="edgeStyle=orthogonalEdgeStyle;rounded=0;orthogonalLoop=1;jettySize=auto;html=1;" parent="WIyWlLk6GJQsqaUBKTNV-1" target="Y8M9MO8NN97qPmSPEtLH-10" edge="1">
          <mxGeometry relative="1" as="geometry">
            <mxPoint x="-110" y="-755" as="sourcePoint" />
          </mxGeometry>
        </mxCell>
        <mxCell id="EGVbobSlY5kvLiHjOKlU-44" style="edgeStyle=orthogonalEdgeStyle;rounded=0;orthogonalLoop=1;jettySize=auto;html=1;" parent="WIyWlLk6GJQsqaUBKTNV-1" target="Y8M9MO8NN97qPmSPEtLH-8" edge="1">
          <mxGeometry relative="1" as="geometry">
            <mxPoint x="-110" y="-755" as="sourcePoint" />
          </mxGeometry>
        </mxCell>
        <mxCell id="dnyV6IaLeIsVLDCgqrAI-4" value="" style="swimlane;fontStyle=2;align=center;verticalAlign=top;childLayout=stackLayout;horizontal=1;startSize=26;horizontalStack=0;resizeParent=1;resizeLast=0;collapsible=1;marginBottom=0;rounded=0;shadow=0;strokeWidth=1;" vertex="1" parent="WIyWlLk6GJQsqaUBKTNV-1">
          <mxGeometry x="10" y="-678" width="250" height="230" as="geometry">
            <mxRectangle x="230" y="140" width="160" height="26" as="alternateBounds" />
          </mxGeometry>
        </mxCell>
        <mxCell id="dnyV6IaLeIsVLDCgqrAI-5" value="Dictionary&lt;string, event&gt; _events" style="text;align=left;verticalAlign=top;spacingLeft=4;spacingRight=4;overflow=hidden;rotatable=0;points=[[0,0.5],[1,0.5]];portConstraint=eastwest;" vertex="1" parent="dnyV6IaLeIsVLDCgqrAI-4">
          <mxGeometry y="26" width="250" height="26" as="geometry" />
        </mxCell>
        <mxCell id="dnyV6IaLeIsVLDCgqrAI-6" value="" style="line;html=1;strokeWidth=1;align=left;verticalAlign=middle;spacingTop=-1;spacingLeft=3;spacingRight=3;rotatable=0;labelPosition=right;points=[];portConstraint=eastwest;" vertex="1" parent="dnyV6IaLeIsVLDCgqrAI-4">
          <mxGeometry y="52" width="250" height="8" as="geometry" />
        </mxCell>
        <mxCell id="dnyV6IaLeIsVLDCgqrAI-7" value="EventAction(string)" style="text;html=1;strokeColor=none;fillColor=none;align=center;verticalAlign=middle;whiteSpace=wrap;rounded=0;" vertex="1" parent="dnyV6IaLeIsVLDCgqrAI-4">
          <mxGeometry y="60" width="250" height="30" as="geometry" />
        </mxCell>
      </root>
    </mxGraphModel>
  </diagram>
</mxfile>
